HIERARCHY
ROOT Hips
{
	OFFSET 0.000000 0.000000 0.000000
	CHANNELS 6 Xposition Yposition Zposition Xrotation Yrotation Zrotation
	JOINT LeftUpLeg_virtual
	{
		OFFSET 0.000000 0.000000 0.000000
		CHANNELS 3 Xrotation Yrotation Zrotation
		JOINT LeftUpLeg
		{
			OFFSET 15.427100 -6.655098 0.678600
			CHANNELS 3 Xrotation Yrotation Zrotation
			JOINT LeftLeg
			{
				OFFSET 4.081073 -39.591068 13.024000
				CHANNELS 3 Xrotation Yrotation Zrotation
				JOINT LeftFoot
				{
					OFFSET -4.081074 -37.707932 -15.979700
					CHANNELS 3 Xrotation Yrotation Zrotation
					JOINT LeftToeBase
					{
						OFFSET 5.346399 -15.068900 20.645000
						CHANNELS 3 Xrotation Yrotation Zrotation
						JOINT LeftToe_End
						{
							OFFSET 2.754700 0.931300 11.300900
							CHANNELS 3 Xrotation Yrotation Zrotation
							End Site
							{
								OFFSET 0 0 0
							}
						}
					}
				}
			}
		}
	}
	JOINT RightUpLeg_virtual
	{
		OFFSET 0.000000 0.000000 0.000000
		CHANNELS 3 Xrotation Yrotation Zrotation
		JOINT RightUpLeg
		{
			OFFSET -15.569500 -6.655098 0.678600
			CHANNELS 3 Xrotation Yrotation Zrotation
			JOINT RightLeg
			{
				OFFSET -4.081825 -39.591045 13.023800
				CHANNELS 3 Xrotation Yrotation Zrotation
				JOINT RightFoot
				{
					OFFSET 4.081824 -37.707954 -15.979600
					CHANNELS 3 Xrotation Yrotation Zrotation
					JOINT RightToeBase
					{
						OFFSET -5.346400 -15.068900 20.645000
						CHANNELS 3 Xrotation Yrotation Zrotation
						JOINT RightToe_End
						{
							OFFSET -2.754700 0.931300 11.300900
							CHANNELS 3 Xrotation Yrotation Zrotation
							End Site
							{
								OFFSET 0 0 0
							}
						}
					}
				}
			}
		}
	}
	JOINT Spine_virtual
	{
		OFFSET 0.000000 0.000000 0.000000
		CHANNELS 3 Xrotation Yrotation Zrotation
		JOINT Spine
		{
			OFFSET -0.279200 12.230698 -2.892100
			CHANNELS 3 Xrotation Yrotation Zrotation
			JOINT Spine1
			{
				OFFSET -0.232667 10.192268 -1.242267
				CHANNELS 3 Xrotation Yrotation Zrotation
				JOINT Spine1_split
				{
					OFFSET -0.232667 10.192268 -1.242267
					CHANNELS 3 Xrotation Yrotation Zrotation
					JOINT Spine2
					{
						OFFSET -0.232667 10.192268 -1.242267
						CHANNELS 3 Xrotation Yrotation Zrotation
						JOINT Neck_virtual
						{
							OFFSET 0.000000 0.000000 0.000000
							CHANNELS 3 Xrotation Yrotation Zrotation
							JOINT Neck
							{
								OFFSET -0.418800 17.814194 8.416900
								CHANNELS 3 Xrotation Yrotation Zrotation
								JOINT Head
								{
									OFFSET 0.000000 7.031097 3.806800
									CHANNELS 3 Xrotation Yrotation Zrotation
									JOINT HeadTop_End
									{
										OFFSET 0.000000 24.646606 12.978600
										CHANNELS 3 Xrotation Yrotation Zrotation
										End Site
										{
											OFFSET 0 0 0
										}
									}
								}
							}
						}
						JOINT LeftShoulder_virtual
						{
							OFFSET 0.000000 0.000000 0.000000
							CHANNELS 3 Xrotation Yrotation Zrotation
							JOINT LeftShoulder
							{
								OFFSET 8.476499 7.247704 -3.868750
								CHANNELS 3 Xrotation Yrotation Zrotation
								JOINT LeftShoulder_split
								{
									OFFSET 8.476499 7.247704 -3.868750
									CHANNELS 3 Xrotation Yrotation Zrotation
									JOINT LeftArm
									{
										OFFSET 9.308998 -2.777710 0.208600
										CHANNELS 3 Xrotation Yrotation Zrotation
										JOINT LeftForeArm
										{
											OFFSET 29.972298 0.000000 0.000000
											CHANNELS 3 Xrotation Yrotation Zrotation
											JOINT LeftHand
											{
												OFFSET 26.026505 0.000000 0.000000
												CHANNELS 3 Xrotation Yrotation Zrotation
												End Site
												{
													OFFSET 0 0 0
												}
											}
										}
									}
								}
							}
						}
						JOINT RightShoulder_virtual
						{
							OFFSET 0.000000 0.000000 0.000000
							CHANNELS 3 Xrotation Yrotation Zrotation
							JOINT RightShoulder
							{
								OFFSET -7.570500 7.247704 -3.868750
								CHANNELS 3 Xrotation Yrotation Zrotation
								JOINT RightShoulder_split
								{
									OFFSET -7.570500 7.247704 -3.868750
									CHANNELS 3 Xrotation Yrotation Zrotation
									JOINT RightArm
									{
										OFFSET -9.308998 -2.777710 0.208500
										CHANNELS 3 Xrotation Yrotation Zrotation
										JOINT RightForeArm
										{
											OFFSET -29.972300 0.000000 0.000000
											CHANNELS 3 Xrotation Yrotation Zrotation
											JOINT RightHand
											{
												OFFSET -26.026505 0.000000 0.000000
												CHANNELS 3 Xrotation Yrotation Zrotation
												End Site
												{
													OFFSET 0 0 0
												}
											}
										}
									}
								}
							}
						}
					}
				}
			}
		}
	}
}
MOTION
Frames: 4
Frame Time: 0.03333333
0.472863 66.423935 -7.287794 0.000000 0.000000 0.000000 -10.345620 4.037650 0.424816 -35.640859 -5.872646 17.932464 70.707696 -2.916173 -0.828391 -23.809928 -2.403541 -14.313651 -0.000066 -0.000002 0.000001 0.000000 0.000000 0.000000 -10.345620 4.037650 0.424816 -29.140080 -3.510411 -23.338847 71.759627 2.879773 0.714874 -30.100917 -3.757732 13.908322 -0.000085 0.000003 -0.000003 0.000000 0.000000 0.000000 -10.345620 4.037650 0.424816 24.173446 0.267346 0.758437 14.300679 -0.000462 0.896334 0.000000 0.000000 0.000000 0.000000 0.000000 0.000000 14.301742 -0.006506 0.892862 18.888417 -1.028621 -1.227771 -9.502150 -3.128163 -0.026382 0.000000 0.000000 0.000000 14.301742 -0.006506 0.892862 1.369056 -20.607352 -8.030735 0.000000 0.000000 0.000000 -26.870564 1.825432 -58.551995 -139.815106 -76.593632 -137.273470 0.000000 0.000000 0.000000 14.301742 -0.006506 0.892862 4.241967 6.025676 23.458814 0.000000 0.000000 0.000000 -22.328981 30.789899 40.151376 -101.532415 65.933783 95.052471 0.000000 0.000000 0.000000 
0.425692 67.063080 -6.918203 0.000000 0.000000 0.000000 -11.642057 4.015096 0.383714 -33.076953 -5.835529 17.922078 69.768415 -2.843514 -0.788366 -24.108954 -2.078077 -14.400674 -0.000066 -0.000002 0.000001 0.000000 0.000000 0.000000 -11.642057 4.015096 0.383714 -26.701762 -4.034270 -22.942387 70.643554 2.751020 0.673294 -30.215165 -3.801162 13.861820 -0.000085 0.000002 -0.000003 0.000000 0.000000 0.000000 -11.642057 4.015096 0.383714 23.956690 0.245095 0.721587 13.992116 -0.012111 0.874928 0.000000 0.000000 0.000000 0.000000 0.000000 0.000000 13.993079 -0.019272 0.870005 17.101288 -1.158556 -1.120068 -9.419536 -3.200687 0.179589 0.000000 0.000000 0.000000 13.993079 -0.019272 0.870005 1.274353 -20.464770 -8.784595 0.000000 0.000000 0.000000 -24.361968 0.125577 -58.409531 -134.037149 -77.572425 -130.766308 0.000000 0.000000 0.000000 13.993079 -0.019272 0.870005 4.281750 6.062522 24.486792 0.000000 0.000000 0.000000 -20.183585 30.544001 38.966919 -101.168550 66.637361 94.218642 0.000000 0.000000 0.000000 
0.340955 67.909363 -6.528090 0.000000 0.000000 0.000000 -12.399106 4.076968 0.362511 -30.960991 -5.751614 17.833101 68.463467 -2.703054 -0.741318 -24.157602 -1.836402 -14.491956 -0.000066 -0.000002 0.000001 0.000000 0.000000 0.000000 -12.399106 4.076968 0.362511 -24.704405 -4.668206 -22.504915 69.235285 2.624839 0.623260 -30.161548 -3.897630 13.721877 -0.000085 0.000002 -0.000003 0.000000 0.000000 0.000000 -12.399106 4.076968 0.362511 23.645509 0.210910 0.709839 13.485195 -0.074092 0.867700 0.000000 0.000000 0.000000 0.000000 0.000000 0.000000 13.486086 -0.083624 0.864977 15.039849 -1.249822 -1.288811 -9.417303 -3.318418 0.602191 0.000000 0.000000 0.000000 13.486086 -0.083624 0.864977 1.157232 -20.150262 -9.778062 0.000000 0.000000 0.000000 -22.947103 -1.113761 -58.002916 -128.515842 -78.463833 -124.614629 0.000000 0.000000 0.000000 13.486086 -0.083624 0.864977 4.416297 5.793502 25.390707 0.000000 0.000000 0.000000 -17.739863 29.670178 39.116756 -104.281559 68.988592 96.225925 0.000000 0.000000 0.000000 
0.210745 68.766640 -6.114965 0.000000 0.000000 0.000000 -12.535139 4.123345 0.410677 -29.543276 -5.525881 17.723537 67.075681 -2.604262 -0.692374 -24.073085 -1.667564 -14.558661 -0.000066 -0.000002 0.000001 0.000000 0.000000 0.000000 -12.535139 4.123345 0.410677 -23.427132 -5.203755 -22.122998 67.890783 2.514203 0.576335 -30.074750 -4.010273 13.533678 -0.000085 0.000003 -0.000003 0.000000 0.000000 0.000000 -12.535139 4.123345 0.410677 23.210101 0.125997 0.689199 12.703021 -0.226609 0.772104 0.000000 0.000000 0.000000 0.000000 0.000000 0.000000 12.703649 -0.233556 0.766654 12.861725 -1.200977 -1.613199 -9.877441 -3.291000 0.800854 0.000000 0.000000 0.000000 12.703649 -0.233556 0.766654 1.104429 -19.890670 -10.278940 0.000000 0.000000 0.000000 -21.196857 -2.412182 -57.702019 -130.960517 -81.096202 -125.841632 0.000000 0.000000 0.000000 12.703649 -0.233556 0.766654 4.503878 5.478727 25.672287 0.000000 0.000000 0.000000 -14.594898 29.842121 39.506159 -105.759086 71.476810 96.313324 0.000000 0.000000 0.000000 
